<?xml version="1.0" encoding="utf-8"?>
<!-- Generator: Adobe Illustrator 16.0.3, SVG Export Plug-In . SVG Version: 6.00 Build 0)  -->
<!DOCTYPE svg PUBLIC "-//W3C//DTD SVG 1.1//EN" "http://www.w3.org/Graphics/SVG/1.1/DTD/svg11.dtd">
<svg version="1.1" id="Layer_1" xmlns="http://www.w3.org/2000/svg" xmlns:xlink="http://www.w3.org/1999/xlink" x="0px" y="0px"
	 width="434px" height="100px" viewBox="0 0 434 100" style="enable-background:new 0 0 434 100;" xml:space="preserve">
<rect x="-1" y="-2.5" style="fill:#38275A;" width="100" height="104"/>
<path style="fill:#FFFFFF;" d="M81.5,29.3c0,0.5,0,7.5,0,8c-0.5,0-5.2,0-5.2,0s-9.5,35.9-9.6,36.4c-0.4,0-12.2,0-12.6,0
	c-0.1-0.4-5.7-22.9-5.7-22.9s-5.9,22.5-6,22.9c-0.4,0-12.2,0-12.6,0c-0.1-0.4-9.1-36.4-9.1-36.4s-4.7,0-5.2,0c0-0.5,0-7.5,0-8
	c0.6,0,22.9,0,23.5,0c0,0.5,0,7.5,0,8c-0.5,0-5.9,0-5.9,0l5.8,23.4c0,0,8.3-31,8.4-31.4c0.4,0,7.7,0,8.1,0
	c0.1,0.4,7.8,31.4,7.8,31.4l6.3-23.4c0,0-5.1,0-5.6,0c0-0.5,0-7.5,0-8C64.5,29.3,80.9,29.3,81.5,29.3z"/>
<g>
	<g>
		<path style="fill:#FFFFFF;" d="M132.6,76v6c0,1.1-0.3,1.9-1,2.5c-0.6,0.6-1.5,0.9-2.6,0.9s-2-0.3-2.6-0.9s-0.9-1.4-0.9-2.5v-6h1.1
			v6.1c0,0.8,0.2,1.4,0.6,1.8c0.4,0.4,1,0.6,1.9,0.6c0.8,0,1.4-0.2,1.8-0.6c0.4-0.4,0.6-1,0.6-1.8v-6H132.6z"/>
		<path style="fill:#FFFFFF;" d="M143,85.3h-1.2l-5.1-7.8h-0.1c0.1,0.9,0.1,1.8,0.1,2.5v5.3h-1V76h1.2l5.1,7.8h0.1
			c0-0.1,0-0.5-0.1-1.1c0-0.6,0-1.1,0-1.3V76h1V85.3z"/>
		<path style="fill:#FFFFFF;" d="M146.2,85.3V76h1.1v9.3H146.2z"/>
		<path style="fill:#FFFFFF;" d="M155.7,76h1.2l-3.3,9.3h-1.1l-3.3-9.3h1.1l2.1,6c0.2,0.7,0.4,1.4,0.6,2c0.2-0.7,0.4-1.4,0.6-2.1
			L155.7,76z"/>
		<path style="fill:#FFFFFF;" d="M164,85.3h-5.2V76h5.2v1h-4.1v3h3.8v1h-3.8v3.4h4.1V85.3z"/>
		<path style="fill:#FFFFFF;" d="M167.8,81.4v3.9h-1.1V76h2.5c1.1,0,2,0.2,2.5,0.7c0.5,0.4,0.8,1.1,0.8,2c0,1.2-0.6,2.1-1.9,2.5
			l2.5,4.2H172l-2.2-3.9H167.8z M167.8,80.5h1.5c0.8,0,1.3-0.2,1.7-0.5c0.4-0.3,0.5-0.8,0.5-1.4c0-0.6-0.2-1.1-0.5-1.3
			c-0.4-0.3-0.9-0.4-1.7-0.4h-1.4V80.5z"/>
		<path style="fill:#FFFFFF;" d="M180.6,82.8c0,0.8-0.3,1.5-0.9,1.9s-1.4,0.7-2.4,0.7c-1.1,0-1.9-0.1-2.5-0.4v-1
			c0.4,0.2,0.8,0.3,1.2,0.4c0.4,0.1,0.9,0.1,1.3,0.1c0.7,0,1.3-0.1,1.6-0.4c0.4-0.3,0.5-0.7,0.5-1.1c0-0.3-0.1-0.6-0.2-0.8
			c-0.1-0.2-0.3-0.4-0.6-0.6c-0.3-0.2-0.8-0.4-1.4-0.6c-0.9-0.3-1.5-0.7-1.9-1.1c-0.4-0.4-0.6-1-0.6-1.7c0-0.7,0.3-1.3,0.8-1.7
			c0.5-0.4,1.2-0.6,2.1-0.6c0.9,0,1.8,0.2,2.5,0.5l-0.3,0.9c-0.8-0.3-1.5-0.5-2.2-0.5c-0.6,0-1,0.1-1.3,0.4c-0.3,0.2-0.5,0.6-0.5,1
			c0,0.3,0.1,0.6,0.2,0.8c0.1,0.2,0.3,0.4,0.6,0.6c0.3,0.2,0.7,0.4,1.3,0.6c1,0.3,1.6,0.7,2,1.1C180.5,81.7,180.6,82.2,180.6,82.8z"
			/>
		<path style="fill:#FFFFFF;" d="M183.2,85.3V76h1.1v9.3H183.2z"/>
		<path style="fill:#FFFFFF;" d="M190.3,85.3h-1.1V77h-2.9v-1h7v1h-2.9V85.3z"/>
		<path style="fill:#FFFFFF;" d="M197.7,80.7l2.5-4.6h1.2l-3.1,5.7v3.6h-1.1v-3.5L194,76h1.2L197.7,80.7z"/>
		<path style="fill:#FFFFFF;" d="M215.3,80.6c0,1.5-0.4,2.7-1.1,3.5c-0.8,0.9-1.8,1.3-3.1,1.3c-1.4,0-2.4-0.4-3.2-1.3
			c-0.7-0.8-1.1-2-1.1-3.5c0-1.5,0.4-2.7,1.1-3.5c0.7-0.8,1.8-1.2,3.2-1.2c1.3,0,2.4,0.4,3.1,1.3C214.9,78,215.3,79.1,215.3,80.6z
			 M207.9,80.6c0,1.3,0.3,2.2,0.8,2.9s1.3,1,2.3,1c1,0,1.8-0.3,2.3-1s0.8-1.6,0.8-2.9c0-1.2-0.3-2.2-0.8-2.8c-0.5-0.6-1.3-1-2.3-1
			c-1,0-1.8,0.3-2.3,1C208.2,78.5,207.9,79.4,207.9,80.6z"/>
		<path style="fill:#FFFFFF;" d="M219.1,85.3H218V76h5.2v1h-4.1v3.4h3.8v1h-3.8V85.3z"/>
		<path style="fill:#FFFFFF;" d="M237.5,85.3h-1.1l-1.9-6.2c-0.1-0.3-0.2-0.6-0.3-1c-0.1-0.4-0.2-0.7-0.2-0.8
			c-0.1,0.6-0.2,1.2-0.4,1.8l-1.8,6.2h-1.1l-2.5-9.3h1.1l1.5,5.7c0.2,0.8,0.4,1.5,0.4,2.2c0.1-0.8,0.3-1.5,0.5-2.3l1.7-5.6h1.1
			l1.7,5.7c0.2,0.7,0.4,1.4,0.5,2.2c0.1-0.6,0.2-1.3,0.5-2.2l1.5-5.7h1.1L237.5,85.3z"/>
		<path style="fill:#FFFFFF;" d="M247.9,85.3l-1.2-3h-3.7l-1.1,3h-1.1l3.7-9.3h0.9l3.7,9.3H247.9z M246.4,81.4l-1.1-2.9
			c-0.1-0.4-0.3-0.8-0.4-1.3c-0.1,0.4-0.2,0.9-0.4,1.3l-1.1,2.9H246.4z"/>
		<path style="fill:#FFFFFF;" d="M256.2,82.8c0,0.8-0.3,1.5-0.9,1.9s-1.4,0.7-2.4,0.7c-1.1,0-1.9-0.1-2.5-0.4v-1
			c0.4,0.2,0.8,0.3,1.2,0.4c0.4,0.1,0.9,0.1,1.3,0.1c0.7,0,1.3-0.1,1.6-0.4c0.4-0.3,0.5-0.7,0.5-1.1c0-0.3-0.1-0.6-0.2-0.8
			c-0.1-0.2-0.3-0.4-0.6-0.6c-0.3-0.2-0.8-0.4-1.4-0.6c-0.9-0.3-1.5-0.7-1.9-1.1c-0.4-0.4-0.6-1-0.6-1.7c0-0.7,0.3-1.3,0.8-1.7
			c0.5-0.4,1.2-0.6,2.1-0.6c0.9,0,1.8,0.2,2.5,0.5l-0.3,0.9c-0.8-0.3-1.5-0.5-2.2-0.5c-0.6,0-1,0.1-1.3,0.4c-0.3,0.2-0.5,0.6-0.5,1
			c0,0.3,0.1,0.6,0.2,0.8c0.1,0.2,0.3,0.4,0.6,0.6c0.3,0.2,0.7,0.4,1.3,0.6c1,0.3,1.6,0.7,2,1.1C256,81.7,256.2,82.2,256.2,82.8z"/>
		<path style="fill:#FFFFFF;" d="M265.8,85.3h-1.1v-4.4h-4.9v4.4h-1.1V76h1.1V80h4.9V76h1.1V85.3z"/>
		<path style="fill:#FFFFFF;" d="M269,85.3V76h1.1v9.3H269z"/>
		<path style="fill:#FFFFFF;" d="M280.5,85.3h-1.2l-5.1-7.8h-0.1c0.1,0.9,0.1,1.8,0.1,2.5v5.3h-1V76h1.2l5.1,7.8h0.1
			c0-0.1,0-0.5-0.1-1.1c0-0.6,0-1.1,0-1.3V76h1V85.3z"/>
		<path style="fill:#FFFFFF;" d="M287.8,80.4h3.2v4.5c-0.5,0.2-1,0.3-1.5,0.4c-0.5,0.1-1.1,0.1-1.8,0.1c-1.4,0-2.5-0.4-3.3-1.3
			c-0.8-0.8-1.2-2-1.2-3.5c0-1,0.2-1.8,0.6-2.5c0.4-0.7,0.9-1.3,1.7-1.7s1.6-0.6,2.6-0.6c1,0,1.9,0.2,2.8,0.5l-0.4,1
			c-0.8-0.4-1.6-0.5-2.4-0.5c-1.1,0-2,0.3-2.6,1s-1,1.6-1,2.8c0,1.3,0.3,2.2,0.9,2.8s1.5,1,2.7,1c0.6,0,1.3-0.1,1.9-0.2v-2.9h-2.1
			V80.4z"/>
		<path style="fill:#FFFFFF;" d="M296.7,85.3h-1.1V77h-2.9v-1h7v1h-2.9V85.3z"/>
		<path style="fill:#FFFFFF;" d="M309.7,80.6c0,1.5-0.4,2.7-1.1,3.5c-0.8,0.9-1.8,1.3-3.1,1.3c-1.4,0-2.4-0.4-3.2-1.3
			c-0.7-0.8-1.1-2-1.1-3.5c0-1.5,0.4-2.7,1.1-3.5c0.7-0.8,1.8-1.2,3.2-1.2c1.3,0,2.4,0.4,3.1,1.3C309.4,78,309.7,79.1,309.7,80.6z
			 M302.4,80.6c0,1.3,0.3,2.2,0.8,2.9s1.3,1,2.3,1c1,0,1.8-0.3,2.3-1s0.8-1.6,0.8-2.9c0-1.2-0.3-2.2-0.8-2.8c-0.5-0.6-1.3-1-2.3-1
			c-1,0-1.8,0.3-2.3,1C302.6,78.5,302.4,79.4,302.4,80.6z"/>
		<path style="fill:#FFFFFF;" d="M319.7,85.3h-1.2l-5.1-7.8h-0.1c0.1,0.9,0.1,1.8,0.1,2.5v5.3h-1V76h1.2l5.1,7.8h0.1
			c0-0.1,0-0.5-0.1-1.1c0-0.6,0-1.1,0-1.3V76h1V85.3z"/>
	</g>
</g>
<g>
	<g>
		<path style="fill:#FFFFFF;" d="M127.9,63.2h-2.5V27.9h19.3v2.3h-16.9v15h15.9v2.3h-15.9V63.2z"/>
		<path style="fill:#FFFFFF;" d="M153,37v17c0,2.6,0.6,4.6,1.7,5.8c1.1,1.2,2.8,1.8,5.2,1.8c3.1,0,5.4-0.8,6.9-2.4s2.2-4.1,2.2-7.7
			V37h2.4v26.2h-2l-0.4-3.6h-0.1c-1.7,2.7-4.7,4.1-9.1,4.1c-6,0-9-3.2-9-9.6V37H153z"/>
		<path style="fill:#FFFFFF;" d="M188.2,61.6c1.5,0,2.8-0.1,4-0.4v1.9c-1.2,0.4-2.5,0.6-4,0.6c-2.3,0-4-0.6-5.1-1.9
			c-1.1-1.2-1.7-3.2-1.7-5.8V39h-3.9v-1.4l3.9-1.1l1.2-5.9h1.2V37h7.7V39h-7.7v16.6c0,2,0.4,3.5,1.1,4.5S186.7,61.6,188.2,61.6z"/>
		<path style="fill:#FFFFFF;" d="M201.2,37v17c0,2.6,0.6,4.6,1.7,5.8c1.1,1.2,2.8,1.8,5.2,1.8c3.1,0,5.4-0.8,6.9-2.4
			s2.2-4.1,2.2-7.7V37h2.4v26.2h-2l-0.4-3.6h-0.1c-1.7,2.7-4.7,4.1-9.1,4.1c-6,0-9-3.2-9-9.6V37H201.2z"/>
		<path style="fill:#FFFFFF;" d="M239.8,36.5c1.1,0,2.3,0.1,3.6,0.3l-0.5,2.3c-1.1-0.3-2.2-0.4-3.4-0.4c-2.2,0-4.1,0.9-5.5,2.8
			c-1.4,1.9-2.1,4.3-2.1,7.2v14.5h-2.4V37h2l0.2,4.7h0.2c1.1-1.9,2.2-3.3,3.5-4.1C236.6,36.9,238.1,36.5,239.8,36.5z"/>
		<path style="fill:#FFFFFF;" d="M260.6,63.7c-3.8,0-6.8-1.2-8.9-3.5c-2.1-2.3-3.2-5.6-3.2-9.9c0-4.2,1-7.5,3.1-10.1
			s4.8-3.8,8.3-3.8c3.1,0,5.5,1.1,7.3,3.2c1.8,2.2,2.7,5.1,2.7,8.8v1.9H251c0,3.6,0.9,6.4,2.5,8.3c1.6,1.9,4,2.8,7.1,2.8
			c1.5,0,2.8-0.1,3.9-0.3c1.1-0.2,2.6-0.7,4.3-1.4V62c-1.5,0.6-2.8,1.1-4.1,1.3C263.5,63.6,262.1,63.7,260.6,63.7z M259.9,38.6
			c-2.5,0-4.6,0.8-6.1,2.5c-1.5,1.7-2.4,4.1-2.7,7.2h16.2c0-3-0.7-5.4-2-7.1C264,39.4,262.2,38.6,259.9,38.6z"/>
		<path style="fill:#FFFFFF;" d="M314.1,50.1c0,4.3-1,7.6-3.1,10c-2.1,2.4-4.9,3.6-8.6,3.6c-2.3,0-4.3-0.6-6.1-1.7
			c-1.8-1.1-3.1-2.7-4-4.8c-0.9-2.1-1.4-4.5-1.4-7.2c0-4.3,1-7.6,3.1-10s4.9-3.6,8.5-3.6c3.6,0,6.4,1.2,8.5,3.6
			C313.1,42.5,314.1,45.8,314.1,50.1z M293.4,50.1c0,3.6,0.8,6.4,2.4,8.4c1.6,2,3.8,3,6.7,3c2.9,0,5.1-1,6.7-3
			c1.6-2,2.4-4.8,2.4-8.4c0-3.6-0.8-6.4-2.4-8.4c-1.6-2-3.9-3-6.7-3s-5.1,1-6.7,3C294.2,43.6,293.4,46.4,293.4,50.1z"/>
		<path style="fill:#FFFFFF;" d="M332.4,39h-6.2v24.2h-2.4V39h-4.9v-1.4l4.9-0.9v-2c0-3.2,0.6-5.6,1.8-7.1s3.1-2.3,5.8-2.3
			c1.4,0,2.9,0.2,4.3,0.7l-0.6,2.1c-1.3-0.4-2.6-0.6-3.8-0.6c-1.9,0-3.2,0.6-4,1.7c-0.8,1.1-1.2,2.9-1.2,5.4V37h6.2V39z"/>
		<path style="fill:#FFFFFF;" d="M353.4,63.2V27.9h2.5v35.3H353.4z"/>
		<path style="fill:#FFFFFF;" d="M376.9,63.7c-3.8,0-6.7-1.2-8.8-3.5c-2.1-2.4-3.2-5.7-3.2-9.9c0-4.3,1.1-7.7,3.3-10.2
			s5.2-3.6,9.1-3.6c2.3,0,4.4,0.4,6.5,1.2l-0.7,2.1c-2.3-0.8-4.2-1.1-5.9-1.1c-3.2,0-5.7,1-7.3,3c-1.7,2-2.5,4.8-2.5,8.6
			c0,3.5,0.8,6.3,2.5,8.3c1.7,2,4,3,7,3c2.4,0,4.6-0.4,6.6-1.3v2.2C381.8,63.3,379.7,63.7,376.9,63.7z"/>
		<path style="fill:#FFFFFF;" d="M401.8,63.7c-3.8,0-6.8-1.2-8.9-3.5c-2.1-2.3-3.2-5.6-3.2-9.9c0-4.2,1-7.5,3.1-10.1
			s4.8-3.8,8.3-3.8c3.1,0,5.5,1.1,7.3,3.2c1.8,2.2,2.7,5.1,2.7,8.8v1.9h-18.9c0,3.6,0.9,6.4,2.5,8.3c1.6,1.9,4,2.8,7.1,2.8
			c1.5,0,2.8-0.1,3.9-0.3c1.1-0.2,2.6-0.7,4.3-1.4V62c-1.5,0.6-2.8,1.1-4.1,1.3C404.7,63.6,403.3,63.7,401.8,63.7z M401.1,38.6
			c-2.5,0-4.6,0.8-6.1,2.5c-1.5,1.7-2.4,4.1-2.7,7.2h16.2c0-3-0.7-5.4-2-7.1C405.2,39.4,403.4,38.6,401.1,38.6z"/>
	</g>
</g>
</svg>
